<mxfile host="Electron" modified="2023-04-26T14:08:31.765Z" agent="Mozilla/5.0 (Macintosh; Intel Mac OS X 10_15_7) AppleWebKit/537.36 (KHTML, like Gecko) draw.io/21.2.1 Chrome/112.0.5615.87 Electron/24.1.2 Safari/537.36" etag="GOwDewWK1S0DMaOOCcyl" version="21.2.1" type="device">
  <diagram name="Page-1" id="NX8-HTwh9vYmY6NMwvyg">
    <mxGraphModel dx="1853" dy="743" grid="1" gridSize="10" guides="1" tooltips="1" connect="1" arrows="1" fold="1" page="1" pageScale="1" pageWidth="827" pageHeight="1169" math="0" shadow="0">
      <root>
        <mxCell id="0" />
        <mxCell id="1" parent="0" />
        <mxCell id="VQix-owB5lH4_ZpII7_T-47" value="release-registry" style="rounded=0;whiteSpace=wrap;html=1;fontSize=10;fillColor=none;dashed=1;align=left;" parent="1" vertex="1">
          <mxGeometry x="32.5" y="170" width="807.5" height="260" as="geometry" />
        </mxCell>
        <mxCell id="VQix-owB5lH4_ZpII7_T-52" style="edgeStyle=none;rounded=0;orthogonalLoop=1;jettySize=auto;html=1;entryX=0.5;entryY=0;entryDx=0;entryDy=0;fontSize=10;startArrow=none;startFill=0;" parent="1" source="VQix-owB5lH4_ZpII7_T-51" target="VQix-owB5lH4_ZpII7_T-11" edge="1">
          <mxGeometry relative="1" as="geometry" />
        </mxCell>
        <mxCell id="VQix-owB5lH4_ZpII7_T-51" value="&lt;font style=&quot;font-size: 10px;&quot;&gt;Managed certificate&lt;/font&gt;" style="shape=note;whiteSpace=wrap;html=1;backgroundOutline=1;darkOpacity=0.05;size=13;" parent="1" vertex="1">
          <mxGeometry x="80" y="210" width="60" height="80" as="geometry" />
        </mxCell>
        <mxCell id="VQix-owB5lH4_ZpII7_T-48" value="postgres-operator" style="rounded=0;whiteSpace=wrap;html=1;fontSize=10;fillColor=none;dashed=1;align=left;" parent="1" vertex="1">
          <mxGeometry x="32.5" y="430" width="807.5" height="100" as="geometry" />
        </mxCell>
        <mxCell id="VQix-owB5lH4_ZpII7_T-37" value="PVC" style="shape=cylinder3;whiteSpace=wrap;html=1;boundedLbl=1;backgroundOutline=1;size=15;fontSize=10;" parent="1" vertex="1">
          <mxGeometry x="760" y="330" width="60" height="80" as="geometry" />
        </mxCell>
        <mxCell id="VQix-owB5lH4_ZpII7_T-15" style="edgeStyle=orthogonalEdgeStyle;rounded=0;orthogonalLoop=1;jettySize=auto;html=1;startArrow=classic;startFill=1;" parent="1" source="VQix-owB5lH4_ZpII7_T-11" target="VQix-owB5lH4_ZpII7_T-12" edge="1">
          <mxGeometry relative="1" as="geometry" />
        </mxCell>
        <mxCell id="VQix-owB5lH4_ZpII7_T-11" value="Ingress" style="rounded=0;whiteSpace=wrap;html=1;align=center;" parent="1" vertex="1">
          <mxGeometry x="80" y="340" width="120" height="60" as="geometry" />
        </mxCell>
        <mxCell id="VQix-owB5lH4_ZpII7_T-16" style="edgeStyle=orthogonalEdgeStyle;rounded=0;orthogonalLoop=1;jettySize=auto;html=1;startArrow=classic;startFill=1;" parent="1" source="VQix-owB5lH4_ZpII7_T-12" target="VQix-owB5lH4_ZpII7_T-13" edge="1">
          <mxGeometry relative="1" as="geometry" />
        </mxCell>
        <mxCell id="VQix-owB5lH4_ZpII7_T-12" value="Service" style="rounded=0;whiteSpace=wrap;html=1;" parent="1" vertex="1">
          <mxGeometry x="250" y="340" width="120" height="60" as="geometry" />
        </mxCell>
        <mxCell id="VQix-owB5lH4_ZpII7_T-32" style="edgeStyle=none;rounded=0;orthogonalLoop=1;jettySize=auto;html=1;fontSize=10;startArrow=classic;startFill=1;" parent="1" source="VQix-owB5lH4_ZpII7_T-13" target="VQix-owB5lH4_ZpII7_T-30" edge="1">
          <mxGeometry relative="1" as="geometry" />
        </mxCell>
        <mxCell id="VQix-owB5lH4_ZpII7_T-13" value="Deployment" style="rounded=0;whiteSpace=wrap;html=1;" parent="1" vertex="1">
          <mxGeometry x="420" y="340" width="120" height="60" as="geometry" />
        </mxCell>
        <mxCell id="VQix-owB5lH4_ZpII7_T-27" style="edgeStyle=none;rounded=0;orthogonalLoop=1;jettySize=auto;html=1;fontSize=10;startArrow=none;startFill=0;entryX=0.5;entryY=0;entryDx=0;entryDy=0;" parent="1" source="VQix-owB5lH4_ZpII7_T-17" target="VQix-owB5lH4_ZpII7_T-13" edge="1">
          <mxGeometry relative="1" as="geometry" />
        </mxCell>
        <mxCell id="VQix-owB5lH4_ZpII7_T-17" value="&lt;font style=&quot;font-size: 10px;&quot;&gt;OIDC configuration&lt;/font&gt;" style="shape=note;whiteSpace=wrap;html=1;backgroundOutline=1;darkOpacity=0.05;size=13;" parent="1" vertex="1">
          <mxGeometry x="430" y="200" width="60" height="80" as="geometry" />
        </mxCell>
        <mxCell id="VQix-owB5lH4_ZpII7_T-26" style="rounded=0;orthogonalLoop=1;jettySize=auto;html=1;fontSize=10;startArrow=none;startFill=0;entryX=0.5;entryY=0;entryDx=0;entryDy=0;" parent="1" source="VQix-owB5lH4_ZpII7_T-18" target="VQix-owB5lH4_ZpII7_T-13" edge="1">
          <mxGeometry relative="1" as="geometry" />
        </mxCell>
        <mxCell id="VQix-owB5lH4_ZpII7_T-18" value="&lt;font style=&quot;font-size: 10px;&quot;&gt;Server configuration&lt;/font&gt;" style="shape=note;whiteSpace=wrap;html=1;backgroundOutline=1;darkOpacity=0.05;size=13;" parent="1" vertex="1">
          <mxGeometry x="360" y="200" width="60" height="80" as="geometry" />
        </mxCell>
        <mxCell id="VQix-owB5lH4_ZpII7_T-28" style="edgeStyle=none;rounded=0;orthogonalLoop=1;jettySize=auto;html=1;entryX=0.5;entryY=0;entryDx=0;entryDy=0;fontSize=10;startArrow=none;startFill=0;" parent="1" source="VQix-owB5lH4_ZpII7_T-19" target="VQix-owB5lH4_ZpII7_T-13" edge="1">
          <mxGeometry relative="1" as="geometry" />
        </mxCell>
        <mxCell id="VQix-owB5lH4_ZpII7_T-19" value="&lt;font style=&quot;font-size: 10px;&quot;&gt;Server localhost certificates&lt;/font&gt;" style="shape=note;whiteSpace=wrap;html=1;backgroundOutline=1;darkOpacity=0.05;size=13;" parent="1" vertex="1">
          <mxGeometry x="500" y="200" width="60" height="80" as="geometry" />
        </mxCell>
        <mxCell id="VQix-owB5lH4_ZpII7_T-21" value="" style="sketch=0;html=1;dashed=0;whitespace=wrap;fillColor=#2875E2;strokeColor=#ffffff;points=[[0.005,0.63,0],[0.1,0.2,0],[0.9,0.2,0],[0.5,0,0],[0.995,0.63,0],[0.72,0.99,0],[0.5,1,0],[0.28,0.99,0]];verticalLabelPosition=bottom;align=center;verticalAlign=top;shape=mxgraph.kubernetes.icon;prIcon=ing;fontSize=10;" parent="1" vertex="1">
          <mxGeometry x="80" y="340" width="25" height="25" as="geometry" />
        </mxCell>
        <mxCell id="VQix-owB5lH4_ZpII7_T-22" value="" style="sketch=0;html=1;dashed=0;whitespace=wrap;fillColor=#2875E2;strokeColor=#ffffff;points=[[0.005,0.63,0],[0.1,0.2,0],[0.9,0.2,0],[0.5,0,0],[0.995,0.63,0],[0.72,0.99,0],[0.5,1,0],[0.28,0.99,0]];verticalLabelPosition=bottom;align=center;verticalAlign=top;shape=mxgraph.kubernetes.icon;prIcon=svc;fontSize=10;aspect=fixed;" parent="1" vertex="1">
          <mxGeometry x="250" y="340" width="25" height="25" as="geometry" />
        </mxCell>
        <mxCell id="VQix-owB5lH4_ZpII7_T-23" value="" style="sketch=0;html=1;dashed=0;whitespace=wrap;fillColor=#2875E2;strokeColor=#ffffff;points=[[0.005,0.63,0],[0.1,0.2,0],[0.9,0.2,0],[0.5,0,0],[0.995,0.63,0],[0.72,0.99,0],[0.5,1,0],[0.28,0.99,0]];verticalLabelPosition=bottom;align=center;verticalAlign=top;shape=mxgraph.kubernetes.icon;prIcon=secret;fontSize=10;" parent="1" vertex="1">
          <mxGeometry x="360" y="200" width="30" height="20" as="geometry" />
        </mxCell>
        <mxCell id="VQix-owB5lH4_ZpII7_T-24" value="" style="sketch=0;html=1;dashed=0;whitespace=wrap;fillColor=#2875E2;strokeColor=#ffffff;points=[[0.005,0.63,0],[0.1,0.2,0],[0.9,0.2,0],[0.5,0,0],[0.995,0.63,0],[0.72,0.99,0],[0.5,1,0],[0.28,0.99,0]];verticalLabelPosition=bottom;align=center;verticalAlign=top;shape=mxgraph.kubernetes.icon;prIcon=secret;fontSize=10;" parent="1" vertex="1">
          <mxGeometry x="430" y="200" width="30" height="20" as="geometry" />
        </mxCell>
        <mxCell id="VQix-owB5lH4_ZpII7_T-25" value="" style="sketch=0;html=1;dashed=0;whitespace=wrap;fillColor=#2875E2;strokeColor=#ffffff;points=[[0.005,0.63,0],[0.1,0.2,0],[0.9,0.2,0],[0.5,0,0],[0.995,0.63,0],[0.72,0.99,0],[0.5,1,0],[0.28,0.99,0]];verticalLabelPosition=bottom;align=center;verticalAlign=top;shape=mxgraph.kubernetes.icon;prIcon=secret;fontSize=10;" parent="1" vertex="1">
          <mxGeometry x="500" y="200" width="30" height="20" as="geometry" />
        </mxCell>
        <mxCell id="VQix-owB5lH4_ZpII7_T-29" value="" style="sketch=0;html=1;dashed=0;whitespace=wrap;fillColor=#2875E2;strokeColor=#ffffff;points=[[0.005,0.63,0],[0.1,0.2,0],[0.9,0.2,0],[0.5,0,0],[0.995,0.63,0],[0.72,0.99,0],[0.5,1,0],[0.28,0.99,0]];verticalLabelPosition=bottom;align=center;verticalAlign=top;shape=mxgraph.kubernetes.icon;prIcon=deploy;fontSize=10;aspect=fixed;" parent="1" vertex="1">
          <mxGeometry x="420" y="340" width="25" height="25" as="geometry" />
        </mxCell>
        <mxCell id="VQix-owB5lH4_ZpII7_T-38" style="edgeStyle=none;rounded=0;orthogonalLoop=1;jettySize=auto;html=1;fontSize=10;startArrow=classic;startFill=1;" parent="1" source="VQix-owB5lH4_ZpII7_T-30" target="VQix-owB5lH4_ZpII7_T-37" edge="1">
          <mxGeometry relative="1" as="geometry" />
        </mxCell>
        <mxCell id="VQix-owB5lH4_ZpII7_T-30" value="Postgres" style="rounded=0;whiteSpace=wrap;html=1;" parent="1" vertex="1">
          <mxGeometry x="590" y="340" width="120" height="60" as="geometry" />
        </mxCell>
        <mxCell id="VQix-owB5lH4_ZpII7_T-33" style="edgeStyle=none;rounded=0;orthogonalLoop=1;jettySize=auto;html=1;fontSize=10;startArrow=classic;startFill=1;" parent="1" source="VQix-owB5lH4_ZpII7_T-2" target="VQix-owB5lH4_ZpII7_T-30" edge="1">
          <mxGeometry relative="1" as="geometry" />
        </mxCell>
        <mxCell id="VQix-owB5lH4_ZpII7_T-2" value="" style="sketch=0;html=1;dashed=0;whitespace=wrap;fillColor=#2875E2;strokeColor=#ffffff;points=[[0.005,0.63,0],[0.1,0.2,0],[0.9,0.2,0],[0.5,0,0],[0.995,0.63,0],[0.72,0.99,0],[0.5,1,0],[0.28,0.99,0]];verticalLabelPosition=bottom;align=center;verticalAlign=top;shape=mxgraph.kubernetes.icon;prIcon=crd;aspect=fixed;" parent="1" vertex="1">
          <mxGeometry x="590" y="340" width="25" height="25" as="geometry" />
        </mxCell>
        <mxCell id="VQix-owB5lH4_ZpII7_T-4" value="" style="sketch=0;html=1;dashed=0;whitespace=wrap;fillColor=#2875E2;strokeColor=#ffffff;points=[[0.005,0.63,0],[0.1,0.2,0],[0.9,0.2,0],[0.5,0,0],[0.995,0.63,0],[0.72,0.99,0],[0.5,1,0],[0.28,0.99,0]];verticalLabelPosition=bottom;align=center;verticalAlign=top;shape=mxgraph.kubernetes.icon;prIcon=pvc" parent="1" vertex="1">
          <mxGeometry x="777.5" y="330" width="25" height="25" as="geometry" />
        </mxCell>
        <mxCell id="VQix-owB5lH4_ZpII7_T-41" style="edgeStyle=none;rounded=0;orthogonalLoop=1;jettySize=auto;html=1;fontSize=10;startArrow=none;startFill=0;" parent="1" source="VQix-owB5lH4_ZpII7_T-39" target="VQix-owB5lH4_ZpII7_T-30" edge="1">
          <mxGeometry relative="1" as="geometry" />
        </mxCell>
        <mxCell id="VQix-owB5lH4_ZpII7_T-39" value="Postgres Operator" style="rounded=0;whiteSpace=wrap;html=1;" parent="1" vertex="1">
          <mxGeometry x="590" y="450" width="120" height="60" as="geometry" />
        </mxCell>
        <mxCell id="VQix-owB5lH4_ZpII7_T-40" value="" style="sketch=0;html=1;dashed=0;whitespace=wrap;fillColor=#2875E2;strokeColor=#ffffff;points=[[0.005,0.63,0],[0.1,0.2,0],[0.9,0.2,0],[0.5,0,0],[0.995,0.63,0],[0.72,0.99,0],[0.5,1,0],[0.28,0.99,0]];verticalLabelPosition=bottom;align=center;verticalAlign=top;shape=mxgraph.kubernetes.icon;prIcon=crd;aspect=fixed;" parent="1" vertex="1">
          <mxGeometry x="590" y="450" width="25" height="25" as="geometry" />
        </mxCell>
        <mxCell id="VQix-owB5lH4_ZpII7_T-45" style="edgeStyle=none;rounded=0;orthogonalLoop=1;jettySize=auto;html=1;fontSize=10;startArrow=none;startFill=0;" parent="1" source="VQix-owB5lH4_ZpII7_T-43" target="VQix-owB5lH4_ZpII7_T-30" edge="1">
          <mxGeometry relative="1" as="geometry" />
        </mxCell>
        <mxCell id="VQix-owB5lH4_ZpII7_T-46" style="edgeStyle=none;rounded=0;orthogonalLoop=1;jettySize=auto;html=1;entryX=0.5;entryY=0;entryDx=0;entryDy=0;fontSize=10;startArrow=none;startFill=0;" parent="1" source="VQix-owB5lH4_ZpII7_T-43" target="VQix-owB5lH4_ZpII7_T-13" edge="1">
          <mxGeometry relative="1" as="geometry" />
        </mxCell>
        <mxCell id="VQix-owB5lH4_ZpII7_T-43" value="&lt;font style=&quot;font-size: 10px;&quot;&gt;Postgres configuration&lt;/font&gt;" style="shape=note;whiteSpace=wrap;html=1;backgroundOutline=1;darkOpacity=0.05;size=13;" parent="1" vertex="1">
          <mxGeometry x="620" y="200" width="60" height="80" as="geometry" />
        </mxCell>
        <mxCell id="VQix-owB5lH4_ZpII7_T-44" value="" style="sketch=0;html=1;dashed=0;whitespace=wrap;fillColor=#2875E2;strokeColor=#ffffff;points=[[0.005,0.63,0],[0.1,0.2,0],[0.9,0.2,0],[0.5,0,0],[0.995,0.63,0],[0.72,0.99,0],[0.5,1,0],[0.28,0.99,0]];verticalLabelPosition=bottom;align=center;verticalAlign=top;shape=mxgraph.kubernetes.icon;prIcon=secret;fontSize=10;" parent="1" vertex="1">
          <mxGeometry x="620" y="200" width="30" height="20" as="geometry" />
        </mxCell>
        <mxCell id="VQix-owB5lH4_ZpII7_T-50" value="" style="sketch=0;html=1;dashed=0;whitespace=wrap;fillColor=#2875E2;strokeColor=#ffffff;points=[[0.005,0.63,0],[0.1,0.2,0],[0.9,0.2,0],[0.5,0,0],[0.995,0.63,0],[0.72,0.99,0],[0.5,1,0],[0.28,0.99,0]];verticalLabelPosition=bottom;align=center;verticalAlign=top;shape=mxgraph.kubernetes.icon;prIcon=crd;aspect=fixed;" parent="1" vertex="1">
          <mxGeometry x="92.5" y="210" width="25" height="25" as="geometry" />
        </mxCell>
        <mxCell id="VQix-owB5lH4_ZpII7_T-56" style="edgeStyle=none;rounded=0;orthogonalLoop=1;jettySize=auto;html=1;entryX=0.5;entryY=0;entryDx=0;entryDy=0;fontSize=10;startArrow=none;startFill=0;" parent="1" source="VQix-owB5lH4_ZpII7_T-54" target="VQix-owB5lH4_ZpII7_T-11" edge="1">
          <mxGeometry relative="1" as="geometry" />
        </mxCell>
        <mxCell id="VQix-owB5lH4_ZpII7_T-54" value="&lt;font style=&quot;font-size: 10px;&quot;&gt;Frontend config&lt;/font&gt;" style="shape=note;whiteSpace=wrap;html=1;backgroundOutline=1;darkOpacity=0.05;size=13;" parent="1" vertex="1">
          <mxGeometry x="152.5" y="210" width="60" height="80" as="geometry" />
        </mxCell>
        <mxCell id="VQix-owB5lH4_ZpII7_T-55" value="" style="sketch=0;html=1;dashed=0;whitespace=wrap;fillColor=#2875E2;strokeColor=#ffffff;points=[[0.005,0.63,0],[0.1,0.2,0],[0.9,0.2,0],[0.5,0,0],[0.995,0.63,0],[0.72,0.99,0],[0.5,1,0],[0.28,0.99,0]];verticalLabelPosition=bottom;align=center;verticalAlign=top;shape=mxgraph.kubernetes.icon;prIcon=crd;aspect=fixed;" parent="1" vertex="1">
          <mxGeometry x="170" y="210" width="25" height="25" as="geometry" />
        </mxCell>
        <mxCell id="VQix-owB5lH4_ZpII7_T-58" style="edgeStyle=none;rounded=0;orthogonalLoop=1;jettySize=auto;html=1;fontSize=10;startArrow=none;startFill=0;" parent="1" source="VQix-owB5lH4_ZpII7_T-57" target="VQix-owB5lH4_ZpII7_T-11" edge="1">
          <mxGeometry relative="1" as="geometry" />
        </mxCell>
        <mxCell id="VQix-owB5lH4_ZpII7_T-57" value="" style="shape=umlActor;verticalLabelPosition=bottom;verticalAlign=top;html=1;outlineConnect=0;fontSize=10;fillColor=none;" parent="1" vertex="1">
          <mxGeometry x="-50" y="340" width="30" height="60" as="geometry" />
        </mxCell>
      </root>
    </mxGraphModel>
  </diagram>
</mxfile>
